<?xml version="1.0" encoding="UTF-8"?>
<svg id="_レイヤー_2" data-name="レイヤー 2" xmlns="http://www.w3.org/2000/svg" viewBox="0 0 1247.61 88.78">
  <defs>
    <style>
      .cls-1 {
        fill: none;
        stroke: #2491b9;
        stroke-miterlimit: 10;
        stroke-width: 2px;
      }
    </style>
  </defs>
  <g id="_レイヤー_1-2" data-name="レイヤー 1">
    <g>
      <path class="cls-1" d="M12.67,23.74c.75,13.37,5.63,36.84,5.66,53.32,0,9.72-6.11,10.61-9.75,10.61-8.4,0-7.55-9.67-7.55-9.63,2.6-14.95,8.27-53.05,11.65-54.29ZM23.87,1.04c17.08,0,12.8,22.11,12.8,22.11-.19-.17-.38-.33-.57-.48-7.68-6.34-16.28-5.28-23.43,1.07.51-5.32-1.88-22.7,11.19-22.7h0ZM36.67,23.16c2.74,2.18,6.24,20.58,9.41,30.35-15.99,0-9.41-30.35-9.41-30.35ZM38.13,80.35s-.5-2.98,7.96-26.84c.05.17.1.33.16.49,3.4,10.69,7.45,18.14,8.11,25.81,0-.04.57,7.21-7.97,7.97,0,0-8.18-.24-8.25-7.42h0ZM55.5,23.16s6.63,30.37-9.42,30.35c3.18-9.77,6.68-28.17,9.42-30.35ZM68.3,1.05c13.07,0,10.68,17.38,11.19,22.7-7.15-6.35-15.75-7.41-23.43-1.07-.19.16-.38.32-.57.48,0,0-4.27-22.11,12.8-22.11h0ZM89.87,78.04s.76,9.63-7.86,9.63c-3.9,0-9.44-2.01-9.44-11.73.02-16.48,6.76-39.1,6.93-52.19,2.85,1.69,9.17,40.26,10.37,54.29h0Z"/>
      <path class="cls-1" d="M118.51,45.13c0,10.43,1.03,22.69,5.09,31.28-13.42-4.83-21.39-16.37-21.39-31.28s7.75-26.11,20.83-31.06c-3.59,9.06-4.52,21.22-4.52,31.06ZM154.41,13.99c-4.69-1.69-9.97-2.61-15.7-2.61s-11.07.95-15.67,2.69c3.01-7.58,7.89-12.99,15.67-13.03,7.81-.04,12.69,5.35,15.7,12.95h0ZM138.71,78.87c5.47,0,10.53-.84,15.06-2.39-3.05,6.38-7.75,10.73-15.06,10.73s-12.06-4.38-15.11-10.81c4.46,1.61,9.53,2.47,15.11,2.47ZM176.62,45.13c0,15-8.88,26.59-22.85,31.36,4.1-8.59,5.13-20.89,5.13-31.36s-.92-22.11-4.5-31.14c13.6,4.91,22.21,16.37,22.21,31.14h0Z"/>
      <path class="cls-1" d="M200.1,23.74c.75,13.37,5.63,36.84,5.66,53.32,0,9.72-6.11,10.61-9.75,10.61-8.4,0-7.55-9.67-7.55-9.63,2.6-14.95,8.27-53.05,11.65-54.29ZM211.3,1.04c17.08,0,12.8,22.11,12.8,22.11-.19-.17-.38-.33-.57-.48-7.68-6.34-16.28-5.28-23.43,1.07.51-5.32-1.88-22.7,11.19-22.7h0ZM224.1,23.16c2.74,2.18,6.24,20.58,9.41,30.35-15.99,0-9.41-30.35-9.41-30.35ZM225.56,80.35s-.5-2.98,7.96-26.84c.05.17.1.33.16.49,3.4,10.69,7.45,18.14,8.11,25.81,0-.04.57,7.21-7.97,7.97,0,0-8.18-.24-8.25-7.42h0ZM242.93,23.16s6.63,30.37-9.42,30.35c3.18-9.77,6.68-28.17,9.42-30.35ZM255.74,1.05c13.07,0,10.68,17.38,11.19,22.7-7.15-6.35-15.75-7.41-23.43-1.07-.19.16-.38.32-.57.48,0,0-4.27-22.11,12.8-22.11h0ZM277.3,78.04s.76,9.63-7.86,9.63c-3.9,0-9.44-2.01-9.44-11.73.02-16.48,6.76-39.1,6.93-52.19,2.85,1.69,9.17,40.26,10.37,54.29h0Z"/>
      <path class="cls-1" d="M305.95,45.13c0,10.43,1.03,22.69,5.09,31.28-13.42-4.83-21.39-16.37-21.39-31.28s7.75-26.11,20.83-31.06c-3.59,9.06-4.52,21.22-4.52,31.06ZM341.84,13.99c-4.69-1.69-9.97-2.61-15.7-2.61s-11.07.95-15.67,2.69c3.01-7.58,7.89-12.99,15.67-13.03,7.81-.04,12.69,5.35,15.7,12.95h0ZM326.14,78.87c5.47,0,10.53-.84,15.06-2.39-3.05,6.38-7.75,10.73-15.06,10.73s-12.06-4.38-15.11-10.81c4.46,1.61,9.53,2.47,15.11,2.47ZM364.06,45.13c0,15-8.88,26.59-22.85,31.36,4.1-8.59,5.13-20.89,5.13-31.36s-.92-22.11-4.5-31.14c13.6,4.91,22.21,16.37,22.21,31.14h0Z"/>
      <path class="cls-1" d="M395.05,14.96c2.94,5.62,5.94,11.51,8.76,17.33-5.3-1.24-10.35-3.77-14.99-6.32-6.87-4.02-12.46-7.38-15.01-13.72-1.97-4.44.46-10.41,5.89-11.07l.2-.03c8.69-.82,11.85,7.82,15.15,13.81ZM402.2,83.4c-4.15-6.51.83-22.21,7.66-37.89,5.67,12.86,12.39,30.25,7.92,37.7-3.17,5.86-12.27,5.95-15.58.19h0ZM403.81,32.29c3.4.8,6.9,1.07,10.47.47.53-.1,1.09-.22,1.66-.36-2.07,4.23-4.15,8.67-6.08,13.11-1.84-4.16-3.56-7.85-4.76-10.58-.42-.88-.85-1.76-1.28-2.65h0ZM446.99,10.7c-1.7,8.8-19.74,19-31.04,21.71,4.89-9.99,9.68-18.79,12.19-23.63,2.11-3.63,5.37-7.31,9.94-7.67,5.67-.55,9.87,4.64,8.91,9.6Z"/>
      <path class="cls-1" d="M472.69,45.13c0,10.43,1.03,22.69,5.09,31.28-13.42-4.83-21.39-16.37-21.39-31.28s7.75-26.11,20.83-31.06c-3.59,9.06-4.52,21.22-4.52,31.06ZM508.59,13.99c-4.69-1.69-9.97-2.61-15.7-2.61s-11.07.95-15.67,2.69c3.01-7.58,7.89-12.99,15.67-13.03,7.81-.04,12.69,5.35,15.7,12.95h0ZM492.89,78.87c5.47,0,10.53-.84,15.06-2.39-3.05,6.38-7.75,10.73-15.06,10.73s-12.06-4.38-15.11-10.81c4.46,1.61,9.53,2.47,15.11,2.47ZM530.8,45.13c0,15-8.88,26.59-22.85,31.36,4.1-8.59,5.13-20.89,5.13-31.36s-.92-22.11-4.5-31.14c13.6,4.91,22.21,16.37,22.21,31.14h0Z"/>
      <path class="cls-1" d="M607.14,14.96c2.94,5.62,5.94,11.51,8.76,17.33-5.3-1.24-10.35-3.77-14.99-6.32-6.87-4.02-12.46-7.38-15.01-13.72-1.97-4.44.46-10.41,5.89-11.07l.2-.03c8.69-.82,11.85,7.82,15.15,13.81ZM614.29,83.4c-4.15-6.51.83-22.21,7.66-37.89,5.67,12.86,12.39,30.25,7.92,37.7-3.17,5.86-12.27,5.95-15.58.19h0ZM615.9,32.29c3.4.8,6.9,1.07,10.47.47.53-.1,1.09-.22,1.66-.36-2.07,4.23-4.15,8.67-6.08,13.11-1.84-4.16-3.56-7.85-4.76-10.58-.42-.88-.85-1.76-1.28-2.65h0ZM659.08,10.7c-1.71,8.8-19.74,19-31.04,21.71,4.89-9.99,9.68-18.79,12.19-23.63,2.11-3.63,5.37-7.31,9.94-7.67,5.67-.55,9.87,4.64,8.91,9.6Z"/>
      <path class="cls-1" d="M684.29,50.03c-1.96,12.08-3.31,23.11-3.85,27.76-.31,2.66-1.38,5.21-3.25,7.14-2.19,2.25-5.14,3.57-7.78,1.46-4.05-4.19-1.39-13.93,1.9-19.08,4.38-6.77,8.04-13,12.98-17.27ZM682.68,6.49c3.78-1.31,7.72.3,11.53,3.52-3.07,6.06-5.8,17.33-8.02,29.12-3.78-5.56-7.64-11.77-8.49-18.65-.72-6.43.79-11.83,4.98-13.98h0ZM691.08,45.92c-2.56.99-4.79,2.38-6.79,4.11.58-3.59,1.22-7.27,1.9-10.9.14.21.28.41.42.62,1.45,1.89,2.91,4.04,4.47,6.17h0ZM691.08,45.92c2.51-.97,5.35-1.56,8.66-1.64,5.39-.23,14.24,1.62,13.56,8.31-.4,3.01-3.39,5.47-6.96,5.25-6.55-.87-11.21-6.36-15.26-11.92ZM696.23,6.86c15.5-17.35,27.32,8.43,26.57,22.8.18,6.75-1.5,13.43-3.62,20.1-1.03-2.07-2.03-4.08-2.92-5.87-3.32-6.89-12.27-25.64-22.05-33.88.66-1.3,1.33-2.38,2.02-3.15h0ZM730.24,78.6c-2.18,12.15-18.26,11.29-18.57-1.3v-.22c.89-9.13,4.6-18.2,7.51-27.32,2.04,4.1,4.22,8.49,6.06,12.2,2.44,5.25,5.82,10.72,5,16.63Z"/>
      <path class="cls-1" d="M753.86,23.74c.75,13.37,5.63,36.84,5.66,53.32,0,9.72-6.11,10.61-9.75,10.61-8.4,0-7.55-9.67-7.55-9.63,2.61-14.95,8.27-53.05,11.65-54.29ZM765.05,1.04c17.08,0,12.8,22.11,12.8,22.11-.19-.17-.38-.33-.57-.48-7.68-6.34-16.28-5.28-23.43,1.07.51-5.32-1.88-22.7,11.19-22.7h0ZM777.86,23.16c2.74,2.18,6.24,20.58,9.41,30.35-15.99,0-9.41-30.35-9.41-30.35ZM779.31,80.35s-.5-2.98,7.96-26.84c.05.17.1.33.16.49,3.4,10.69,7.45,18.14,8.11,25.81,0-.04.57,7.21-7.97,7.97,0,0-8.18-.24-8.25-7.42h0ZM796.69,23.16s6.63,30.37-9.42,30.35c3.18-9.77,6.68-28.17,9.42-30.35ZM809.49,1.05c13.07,0,10.68,17.38,11.19,22.7-7.15-6.35-15.75-7.41-23.43-1.07-.19.16-.38.32-.57.48,0,0-4.27-22.11,12.8-22.11h0ZM831.06,78.04s.76,9.63-7.86,9.63c-3.9,0-9.44-2.01-9.44-11.73.02-16.48,6.76-39.1,6.93-52.19,2.85,1.69,9.17,40.26,10.37,54.29h0Z"/>
      <path class="cls-1" d="M859.21,50.03c-1.96,12.08-3.31,23.11-3.85,27.76-.31,2.66-1.38,5.21-3.25,7.14-2.19,2.25-5.14,3.57-7.78,1.46-4.05-4.19-1.39-13.93,1.9-19.08,4.38-6.77,8.04-13,12.98-17.27ZM857.6,6.49c3.78-1.31,7.72.3,11.53,3.52-3.07,6.06-5.8,17.33-8.02,29.12-3.78-5.56-7.64-11.77-8.49-18.65-.72-6.43.79-11.83,4.98-13.98h0ZM866,45.92c-2.56.99-4.79,2.38-6.79,4.11.58-3.59,1.22-7.27,1.9-10.9.14.21.28.41.42.62,1.45,1.89,2.91,4.04,4.47,6.17h0ZM866,45.92c2.51-.97,5.35-1.56,8.66-1.64,5.39-.23,14.24,1.62,13.56,8.31-.4,3.01-3.39,5.47-6.96,5.25-6.55-.87-11.21-6.36-15.26-11.92ZM871.15,6.86c15.5-17.35,27.32,8.43,26.57,22.8.18,6.75-1.5,13.43-3.62,20.1-1.03-2.07-2.03-4.08-2.92-5.87-3.32-6.89-12.27-25.64-22.05-33.88.66-1.3,1.33-2.38,2.02-3.15h0ZM905.16,78.6c-2.18,12.15-18.26,11.29-18.57-1.3v-.22c.89-9.13,4.6-18.2,7.51-27.32,2.04,4.1,4.22,8.49,6.06,12.2,2.44,5.25,5.82,10.72,5,16.63Z"/>
      <path class="cls-1" d="M933.16,45.12c0,10.43,1.02,22.68,5.08,31.27-13.42-4.83-21.38-16.37-21.38-31.27s7.74-26.11,20.82-31.05c-3.6,9.05-4.52,21.22-4.52,31.05ZM953.36,11.38c-5.81,0-11.08.94-15.68,2.69,3-7.6,7.89-13,15.68-13.04,7.8-.04,12.69,5.34,15.7,12.95-4.68-1.7-9.97-2.6-15.7-2.6ZM953.36,78.87c5.48,0,10.55-.83,15.08-2.39-3.04,6.4-7.76,10.74-15.08,10.74s-12.08-4.38-15.12-10.83c4.47,1.61,9.54,2.48,15.12,2.48ZM943.33,55.04c0-4.88,7.6-4.46,7.6-4.46,7.06.38,11.67,2.32,14.64,4.99-4.39,2.32-7.54,4.72-14.64,4.36,0,0-7.6-.03-7.6-4.88h0ZM984.72,60.36c.88,12.2-16.28,16.12-16.28,16.12,1.64-3.44,4.37-14.38-2.87-20.91,1.26-.67,2.61-1.32,4.19-1.91,5.63-2.08,14.47-.08,14.96,6.71ZM979.65,35.47c-3.39,0-6.24-2.5-6.71-5.86-.81-5.57-2.04-10.96-3.87-15.63,6.17,2.24,11.44,5.66,15.56,10.03,1.27,1.36,1.85,2.98,1.85,4.58,0,3.5-2.75,6.88-6.83,6.88h0Z"/>
      <path class="cls-1" d="M1014.09,13.26c-2,16.24-6.96,38.02-5.32,47.72-9.49-7.23-10.84-39.39-8.24-52.68,0-.03,1.25-7.9,7.55-7,2.71.39,7.17,2.66,6.01,11.96h0ZM1048.85,61.78c-4.92,32.75-35.35,36.77-40.08-.8,10.55,8.61,28.39,9.82,40.08.8ZM1057.62,6.85c4.59,12.76,1.54,48.64-8.78,54.93,1.88-9.81-2.95-31.33-5.39-47.78-.98-6.63,2.41-11.64,6.51-12.54,5.62-1.25,7.64,5.37,7.65,5.39h0Z"/>
      <path class="cls-1" d="M1093.28,14.15c-3.6,9.1-4.52,21.33-4.52,31.21,0,10.48,1.02,22.79,5.08,31.43-13.42-4.85-21.39-16.45-21.39-31.43s7.74-26.24,20.82-31.21h0ZM1108.96,11.44c-5.81,0-11.08.95-15.68,2.71,3-7.63,7.89-13.06,15.68-13.1,7.8-.04,12.69,5.36,15.7,13,6.17,2.24,11.44,5.65,15.56,10.03,1.27,1.35,1.85,2.97,1.85,4.58,0,3.5-2.75,6.88-6.83,6.88-3.39,0-6.24-2.5-6.71-5.86-.81-5.56-2.04-10.95-3.86-15.62-4.68-1.71-9.97-2.62-15.7-2.62ZM1093.84,76.78c4.47,1.62,9.54,2.49,15.12,2.49s10.55-.83,15.08-2.4c-3.04,6.43-7.76,10.79-15.08,10.79s-12.08-4.4-15.12-10.88h0ZM1139.54,53.63c1.94,1.28,3.22,3.48,3.22,5.98,0,.98-.19,1.89-.54,2.73-.01.03-.01.04-.03.06-.15.48-.37.91-.64,1.32-3.97,6.01-10.01,10.56-17.52,13.14,2.31-4.88,4.23-10.55,4.46-17.47.1-3.86,3.24-6.97,7.12-6.97.78,0,1.52.13,2.22.36.19.06.37.13.55.21.02,0,.03.02.05.03.35.14.7.33,1.02.55.02.01.04.02.06.03,0,0,.01,0,.01.01h0Z"/>
      <path class="cls-1" d="M1171.04,28c1.36-4.86,2.71-9.89,2.39-15.01-.42-5.65-2.56-11.48-7.93-11.99-2.84-.03-5.07,1.9-6.54,4.46-3.73,7.03-1.54,15.45.63,22.71,3.26,9.94,7.01,19.4,10.34,29.27,2.85,8.87,6.62,20.7-.4,28.47-3.07,3.04-7.63,1.98-9.95-1.21-4.74-6.22-2.2-17.37.76-26.49,2.19-6.18,3.05-10.71,7.63-15.17,8.59-8.08,26.63-10.12,31.29,3.45,3.3,11.55-6.19,22.53-2.22,34.19,2.34,8.32,10.26,9.59,13.95,2,2.03-4.17,1.89-8.83,1.19-13.38-1.99-10.77-7-21.78-10.54-32.34-3.46-10.73-9.47-23.6-2.03-33.6,3.15-3.72,8.24-2.54,10.69,1.14,5.08,7.42,2.7,18.89-.58,27.12-2.33,5.43-4.23,9.49-8.82,13.55-5.95,5.22-14.54,7.8-22.18,6.34-12.24-1.65-10.39-14.31-7.74-23.25l.07-.24Z"/>
      <path class="cls-1" d="M1246.59,74.28c.54,10.25-7.25,17.24-13.45,11.34l-.09-.09c-7.5-7.56-1.23-24.39,2.68-34.73.77-2.11,1.56-4.26,2.37-6.43h0c3.37,9.48,8.39,21.07,8.5,29.9h0ZM1246.58,14.48c-.07,4.71-1.38,9.58-2.89,14.25-1.69,5.1-3.67,10.42-5.61,15.65-4.33-13.01-12.19-27.63-6.5-39.02,5.63-9.18,15.61-2.64,15,9.12h0Z"/>
    </g>
  </g>
</svg>